<svg xmlns="http://www.w3.org/2000/svg" viewBox="0 0 32 32">
  <!-- Cap -->
  <rect x="8" y="2" width="16" height="3" rx="1" fill="#1a1428"/>
  <!-- Bottle body -->
  <path d="M12 5 Q11 5 10 10 Q7 20 6 26 L26 26 Q25 20 22 10 Q21 5 20 5 Z" fill="#3d1a5e"/>
  <!-- Inner glow gradient -->
  <defs>
    <radialGradient id="g" cx="50%" cy="85%" r="50%">
      <stop offset="0%" stop-color="#ffcf3a" stop-opacity="0.5"/>
      <stop offset="100%" stop-color="#3d1a5e" stop-opacity="0"/>
    </radialGradient>
  </defs>
  <path d="M12 5 Q11 5 10 10 Q7 20 6 26 L26 26 Q25 20 22 10 Q21 5 20 5 Z" fill="url(#g)"/>
  <!-- Pool blob -->
  <ellipse cx="16" cy="24" rx="8" ry="3" fill="#ffcf3a"/>
  <!-- Rising blobs -->
  <circle cx="14" cy="11" r="3" fill="#d4a030" opacity="0.9"/>
  <circle cx="19" cy="16" r="2.2" fill="#d4a030" opacity="0.85"/>
  <circle cx="13" cy="18" r="1.5" fill="#c89028" opacity="0.8"/>
  <!-- Base -->
  <rect x="5" y="26" width="22" height="4" rx="1.5" fill="#1a1428"/>
  <!-- Base glow -->
  <rect x="7" y="26" width="18" height="1" rx="0.5" fill="#ffcf3a" opacity="0.4"/>
</svg>
